<svg xmlns="http://www.w3.org/2000/svg" viewBox="0 0 880 880"><defs><style>.cls-1{fill:#fff;}.cls-2{fill:#024456;}</style></defs><title>logo</title><g id="Layer_2" data-name="Layer 2"><g id="circle"><circle class="cls-1" cx="440" cy="440" r="440"/></g><g id="beveled"><circle class="cls-2" cx="218.98" cy="354.37" r="58.92" transform="translate(-7.68 4.87) rotate(-1.25)"/><circle class="cls-2" cx="441.54" cy="700.97" r="58.92" transform="translate(-198.75 175.28) rotate(-18.41)"/><path class="cls-2" d="M305.55,198.28a58.92,58.92,0,1,0-61.11,56.64A58.93,58.93,0,0,0,305.55,198.28Z"/><circle class="cls-2" cx="441.54" cy="107.15" r="58.92" transform="translate(53.56 343.6) rotate(-45)"/><circle class="cls-2" cx="618.79" cy="441.3" r="58.92" transform="translate(-30.34 45.98) rotate(-4.15)"/><circle class="cls-2" cx="659.92" cy="256.12" r="58.92" transform="translate(12.18 541.65) rotate(-45)"/><path class="cls-2" d="M651,314.36c-18.54-2.84-43.82,4.89-57.21,18.29l-117.2,117.2V617.66a90.38,90.38,0,1,1-70.06,0V366.26q-46.85-46.83-93.69-93.69c-13.38-13.38-38.67-21.13-57.21-18.29A59,59,0,0,0,304.92,205c-2.86,18.54,4.89,43.82,18.29,57.21l98,98v267.7l-4.89,1.72C336.08,658,356.45,776.66,441.54,776.66S547,658,466.79,629.6l-4.89-1.72V443.77l68-68v-134c0-10.4-7-14.64-12.75-20.54a28.63,28.63,0,0,0,40.17,0c-5.75,5.9-12.75,10.14-12.75,20.54V361.09l38.83-38.82c13.39-13.39,21.14-38.67,18.29-57.21A59,59,0,0,0,651,314.36Z"/><path class="cls-2" d="M609.86,499.53c-18.55-2.84-43.82,4.9-57.22,18.3-31.77,31.77-16.6,18.25-48.38,50V601C604.63,664,560,819,441.54,819S278.46,664,378.81,601V524.58L285.14,430.9c-13.4-13.4-38.69-21.14-57.23-18.3a58.91,58.91,0,0,0,49.31-49.3c-2.85,18.55,4.89,43.82,18.29,57.22l98,98v90.86l-3.67,2.12c-91.53,52.9-54,192.84,51.72,192.84s143.24-139.94,51.71-192.84l-3.67-2.12V561.77c33.22-33.21,19.48-21.11,52.68-54.32,13.39-13.4,21.14-38.67,18.3-57.22A58.9,58.9,0,0,0,609.86,499.53Z"/><path class="cls-2" d="M476.4,154.64c-15.12,11.1-27.53,34.46-27.53,53.4v413.5c0,11.29,9.52,22,18.84,26.64a59,59,0,0,0-52.34,0c9.32-4.62,18.83-15.35,18.83-26.64V208c0-18.94-12.4-42.3-27.52-53.4A58.91,58.91,0,0,0,476.4,154.64Z"/><path class="cls-2" d="M508.63,203a28.62,28.62,0,1,1,29.69,27.51A28.62,28.62,0,0,1,508.63,203Z"/></g></g></svg>